<!DOCTYPE svg PUBLIC "-//W3C//DTD SVG 1.1//EN" "http://www.w3.org/Graphics/SVG/1.1/DTD/svg11.dtd">
<!-- Uploaded to: SVG Repo, www.svgrepo.com, Transformed by: SVG Repo Mixer Tools -->
<svg height="800px" width="800px" version="1.1" id="Layer_1" xmlns="http://www.w3.org/2000/svg" xmlns:xlink="http://www.w3.org/1999/xlink" viewBox="-25.6 -25.6 563.20 563.20" xml:space="preserve" fill="#000000" stroke="#000000" stroke-width="0.00512003">
<g id="SVGRepo_bgCarrier" stroke-width="0"/>
<g id="SVGRepo_tracerCarrier" stroke-linecap="round" stroke-linejoin="round" stroke="#ff4242" stroke-width="38.912228000000006"> <g> <path style="fill:#ff4242;" d="M256.001,105.69c19.535-49.77,61.325-87.79,113.231-87.79c43.705,0,80.225,22.572,108.871,54.44 c39.186,43.591,56.497,139.193-15.863,209.24c-37.129,35.946-205.815,212.524-205.815,212.524S88.171,317.084,50.619,281.579 C-22.447,212.495-6.01,116.919,34.756,72.339c28.919-31.629,65.165-54.44,108.871-54.44 C195.532,17.899,236.466,55.92,256.001,105.69"/> </g> </g>
<g id="SVGRepo_iconCarrier"> <g> <path style="fill:#ff4242;" d="M256.001,105.69c19.535-49.77,61.325-87.79,113.231-87.79c43.705,0,80.225,22.572,108.871,54.44 c39.186,43.591,56.497,139.193-15.863,209.24c-37.129,35.946-205.815,212.524-205.815,212.524S88.171,317.084,50.619,281.579 C-22.447,212.495-6.01,116.919,34.756,72.339c28.919-31.629,65.165-54.44,108.871-54.44 C195.532,17.899,236.466,55.92,256.001,105.69"/> </g> </g>
</svg>