<svg width="21" height="21" viewBox="0 0 21 21" fill="none" xmlns="http://www.w3.org/2000/svg">
<path d="M6.97 1.81995L6.086 2.70295C5.91122 2.87778 5.7922 3.1005 5.744 3.34297C5.69579 3.58544 5.72056 3.83676 5.81518 4.06514C5.9098 4.29353 6.07002 4.48874 6.27557 4.62607C6.48113 4.76341 6.72279 4.83671 6.97 4.83671C7.21721 4.83671 7.45888 4.76341 7.66443 4.62607C7.86998 4.48874 8.0302 4.29353 8.12482 4.06514C8.21944 3.83676 8.24421 3.58544 8.19601 3.34297C8.1478 3.1005 8.02878 2.87778 7.854 2.70295L6.97 1.81995ZM13.47 1.81995L12.586 2.70295C12.4112 2.87778 12.2922 3.1005 12.244 3.34297C12.1958 3.58544 12.2206 3.83676 12.3152 4.06514C12.4098 4.29353 12.57 4.48874 12.7756 4.62607C12.9811 4.76341 13.2228 4.83671 13.47 4.83671C13.7172 4.83671 13.9589 4.76341 14.1644 4.62607C14.37 4.48874 14.5302 4.29353 14.6248 4.06514C14.7194 3.83676 14.7442 3.58544 14.696 3.34297C14.6478 3.1005 14.5288 2.87778 14.354 2.70295L13.47 1.81995ZM10.22 1.81995L11.104 2.70295C11.2788 2.87778 11.3978 3.1005 11.446 3.34297C11.4942 3.58544 11.4694 3.83676 11.3748 4.06514C11.2802 4.29353 11.12 4.48874 10.9144 4.62607C10.7089 4.76341 10.4672 4.83671 10.22 4.83671C9.97279 4.83671 9.73113 4.76341 9.52557 4.62607C9.32002 4.48874 9.1598 4.29353 9.06518 4.06514C8.97056 3.83676 8.94579 3.58544 8.994 3.34297C9.0422 3.1005 9.16122 2.87778 9.336 2.70295L10.22 1.81995ZM7.72 6.58995C7.72 6.39103 7.64098 6.20027 7.50033 6.05962C7.35968 5.91896 7.16891 5.83995 6.97 5.83995C6.77109 5.83995 6.58032 5.91896 6.43967 6.05962C6.29902 6.20027 6.22 6.39103 6.22 6.58995V7.05395C5.041 7.35895 4.22 8.44395 4.22 9.67595V9.76995C4.32 9.74995 4.422 9.73195 4.526 9.71895C6.41348 9.46628 8.31569 9.33967 10.22 9.33995C12.15 9.33995 14.05 9.46895 15.914 9.71895C16.018 9.73195 16.12 9.74895 16.22 9.76995V9.67595C16.22 8.44395 15.399 7.35895 14.22 7.05395V6.58995C14.22 6.39103 14.141 6.20027 14.0003 6.05962C13.8597 5.91896 13.6689 5.83995 13.47 5.83995C13.2711 5.83995 13.0803 5.91896 12.9397 6.05962C12.799 6.20027 12.72 6.39103 12.72 6.58995V6.90795C12.1371 6.87609 11.5537 6.85542 10.97 6.84595V6.58995C10.97 6.39103 10.891 6.20027 10.7503 6.05962C10.6097 5.91896 10.4189 5.83995 10.22 5.83995C10.0211 5.83995 9.83032 5.91896 9.68967 6.05962C9.54902 6.20027 9.47 6.39103 9.47 6.58995V6.84595C8.884 6.85595 8.3 6.87595 7.72 6.90795V6.58995ZM4.725 11.2049C6.54653 10.9614 8.38226 10.8394 10.22 10.8399C12.083 10.8399 13.917 10.9639 15.715 11.2049C17.187 11.4019 18.22 12.6779 18.22 14.1199V14.8129C17.642 14.8131 17.0719 14.6785 16.555 14.4199C15.83 14.0575 15.0306 13.8688 14.22 13.8688C13.4094 13.8688 12.61 14.0575 11.885 14.4199C11.3681 14.6785 10.798 14.8131 10.22 14.8131C9.642 14.8131 9.07194 14.6785 8.555 14.4199C7.82999 14.0575 7.03056 13.8688 6.22 13.8688C5.40944 13.8688 4.61001 14.0575 3.885 14.4199C3.36799 14.6782 2.79792 14.8124 2.22 14.8119V14.1189C2.22 12.6779 3.253 11.4029 4.725 11.2049ZM15.885 15.7609C16.61 16.1234 17.4094 16.3121 18.22 16.3119V17.3399C18.22 17.7378 18.062 18.1193 17.7807 18.4006C17.4994 18.6819 17.1178 18.8399 16.72 18.8399H3.72C3.32218 18.8399 2.94065 18.6819 2.65934 18.4006C2.37804 18.1193 2.22 17.7378 2.22 17.3399V16.3119C3.02 16.3119 3.82 16.1289 4.555 15.7609C5.07194 15.5024 5.642 15.3678 6.22 15.3678C6.798 15.3678 7.36806 15.5024 7.885 15.7609C9.355 16.4959 11.085 16.4959 12.555 15.7609C13.0719 15.5024 13.642 15.3678 14.22 15.3678C14.798 15.3678 15.3681 15.5024 15.885 15.7609Z" fill="#495057"/>
</svg>
