<svg width="21" height="21" viewBox="0 0 21 21" fill="none" xmlns="http://www.w3.org/2000/svg">
<path d="M12.322 5.07201C12.7909 4.6031 13.4269 4.33968 14.09 4.33968C14.7531 4.33968 15.3891 4.6031 15.858 5.07201C16.3269 5.54091 16.5903 6.17688 16.5903 6.84001C16.5903 7.50314 16.3269 8.13911 15.858 8.60801L14.633 9.83201C14.4964 9.97352 14.4209 10.163 14.4227 10.3597C14.4245 10.5563 14.5035 10.7444 14.6426 10.8834C14.7817 11.0224 14.9699 11.1011 15.1665 11.1028C15.3632 11.1044 15.5526 11.0287 15.694 10.892L16.918 9.66801C17.6466 8.9136 18.0498 7.90319 18.0407 6.8544C18.0316 5.80562 17.6109 4.80237 16.8693 4.06073C16.1276 3.3191 15.1244 2.89843 14.0756 2.88931C13.0268 2.8802 12.0164 3.28338 11.262 4.01201L8.262 7.01201C7.87234 7.4017 7.56741 7.8677 7.36633 8.38079C7.16525 8.89387 7.07236 9.44298 7.09349 9.99365C7.11461 10.5443 7.2493 11.0847 7.48909 11.5809C7.72889 12.077 8.06863 12.5183 8.487 12.877C8.63831 13.0033 8.83329 13.065 9.02973 13.0487C9.22618 13.0324 9.4083 12.9394 9.53671 12.7898C9.66511 12.6403 9.72947 12.4462 9.71587 12.2495C9.70226 12.0528 9.61178 11.8695 9.46399 11.739C9.20221 11.5149 8.98957 11.2391 8.83945 10.9289C8.68932 10.6188 8.60494 10.2809 8.5916 9.93654C8.57827 9.5922 8.63627 9.24881 8.76196 8.92795C8.88765 8.60709 9.07832 8.31567 9.322 8.07201L12.322 5.07201Z" fill="#495057"/>
<path d="M11.693 8.80293C11.5417 8.6766 11.3467 8.61492 11.1503 8.63124C10.9538 8.64755 10.7717 8.74055 10.6433 8.89012C10.5149 9.03968 10.4505 9.23379 10.4641 9.43044C10.4777 9.62709 10.5682 9.81048 10.716 9.94093C10.9778 10.165 11.1904 10.4408 11.3405 10.751C11.4907 11.0612 11.575 11.3991 11.5884 11.7434C11.6017 12.0877 11.5437 12.4311 11.418 12.752C11.2923 13.0729 11.1017 13.3643 10.858 13.6079L7.85799 16.6079C7.38909 17.0768 6.75312 17.3403 6.08999 17.3403C5.42686 17.3403 4.7909 17.0768 4.32199 16.6079C3.85309 16.139 3.58966 15.5031 3.58966 14.8399C3.58966 14.1768 3.85309 13.5408 4.32199 13.0719L5.54699 11.8479C5.68355 11.7064 5.75905 11.5169 5.75725 11.3203C5.75545 11.1236 5.67649 10.9356 5.53736 10.7966C5.39824 10.6576 5.2101 10.5788 5.01345 10.5772C4.8168 10.5756 4.62738 10.6512 4.48599 10.7879L3.26199 12.0119C2.87995 12.3809 2.57522 12.8223 2.36559 13.3103C2.15595 13.7983 2.04561 14.3232 2.04099 14.8543C2.03638 15.3854 2.13758 15.9122 2.33871 16.4037C2.53983 16.8953 2.83684 17.3419 3.21241 17.7175C3.58798 18.0931 4.03459 18.3901 4.52618 18.5912C5.01776 18.7923 5.54448 18.8935 6.0756 18.8889C6.60672 18.8843 7.13159 18.774 7.61961 18.5643C8.10763 18.3547 8.54901 18.05 8.91799 17.6679L11.918 14.6679C12.3076 14.2782 12.6126 13.8122 12.8137 13.2992C13.0147 12.7861 13.1076 12.237 13.0865 11.6863C13.0654 11.1356 12.9307 10.5952 12.6909 10.0991C12.4511 9.6029 12.1114 9.16163 11.693 8.80293Z" fill="#495057"/>
</svg>
