<svg width="21" height="21" viewBox="0 0 21 21" fill="none" xmlns="http://www.w3.org/2000/svg">
<path d="M5.55 12.84C5.55 12.6411 5.62902 12.4503 5.76967 12.3096C5.91033 12.169 6.10109 12.09 6.3 12.09H6.31C6.50892 12.09 6.69968 12.169 6.84033 12.3096C6.98099 12.4503 7.06 12.6411 7.06 12.84V12.85C7.06 13.0489 6.98099 13.2396 6.84033 13.3803C6.69968 13.5209 6.50892 13.6 6.31 13.6H6.3C6.10109 13.6 5.91033 13.5209 5.76967 13.3803C5.62902 13.2396 5.55 13.0489 5.55 12.85V12.84ZM6.3 14.09C6.10109 14.09 5.91033 14.169 5.76967 14.3096C5.62902 14.4503 5.55 14.6411 5.55 14.84V14.85C5.55 15.264 5.886 15.6 6.3 15.6H6.31C6.50892 15.6 6.69968 15.5209 6.84033 15.3803C6.98099 15.2396 7.06 15.0489 7.06 14.85V14.84C7.06 14.6411 6.98099 14.4503 6.84033 14.3096C6.69968 14.169 6.50892 14.09 6.31 14.09H6.3ZM7.55 12.84C7.55 12.6411 7.62902 12.4503 7.76967 12.3096C7.91033 12.169 8.10109 12.09 8.3 12.09H8.31C8.50892 12.09 8.69968 12.169 8.84033 12.3096C8.98099 12.4503 9.06 12.6411 9.06 12.84V12.85C9.06 13.0489 8.98099 13.2396 8.84033 13.3803C8.69968 13.5209 8.50892 13.6 8.31 13.6H8.3C8.10109 13.6 7.91033 13.5209 7.76967 13.3803C7.62902 13.2396 7.55 13.0489 7.55 12.85V12.84ZM8.3 14.09C8.10109 14.09 7.91033 14.169 7.76967 14.3096C7.62902 14.4503 7.55 14.6411 7.55 14.84V14.85C7.55 15.264 7.886 15.6 8.3 15.6H8.31C8.50892 15.6 8.69968 15.5209 8.84033 15.3803C8.98099 15.2396 9.06 15.0489 9.06 14.85V14.84C9.06 14.6411 8.98099 14.4503 8.84033 14.3096C8.69968 14.169 8.50892 14.09 8.31 14.09H8.3ZM9.55 10.84C9.55 10.6411 9.62902 10.4503 9.76967 10.3096C9.91033 10.169 10.1011 10.09 10.3 10.09H10.31C10.5089 10.09 10.6997 10.169 10.8403 10.3096C10.981 10.4503 11.06 10.6411 11.06 10.84V10.85C11.06 11.0489 10.981 11.2396 10.8403 11.3803C10.6997 11.5209 10.5089 11.6 10.31 11.6H10.3C10.1011 11.6 9.91033 11.5209 9.76967 11.3803C9.62902 11.2396 9.55 11.0489 9.55 10.85V10.84ZM10.3 12.09C10.1011 12.09 9.91033 12.169 9.76967 12.3096C9.62902 12.4503 9.55 12.6411 9.55 12.84V12.85C9.55 13.264 9.886 13.6 10.3 13.6H10.31C10.5089 13.6 10.6997 13.5209 10.8403 13.3803C10.981 13.2396 11.06 13.0489 11.06 12.85V12.84C11.06 12.6411 10.981 12.4503 10.8403 12.3096C10.6997 12.169 10.5089 12.09 10.31 12.09H10.3ZM9.55 14.84C9.55 14.6411 9.62902 14.4503 9.76967 14.3096C9.91033 14.169 10.1011 14.09 10.3 14.09H10.31C10.5089 14.09 10.6997 14.169 10.8403 14.3096C10.981 14.4503 11.06 14.6411 11.06 14.84V14.85C11.06 15.0489 10.981 15.2396 10.8403 15.3803C10.6997 15.5209 10.5089 15.6 10.31 15.6H10.3C10.1011 15.6 9.91033 15.5209 9.76967 15.3803C9.62902 15.2396 9.55 15.0489 9.55 14.85V14.84ZM12.3 10.09C12.1011 10.09 11.9103 10.169 11.7697 10.3096C11.629 10.4503 11.55 10.6411 11.55 10.84V10.85C11.55 11.264 11.886 11.6 12.3 11.6H12.31C12.5089 11.6 12.6997 11.5209 12.8403 11.3803C12.981 11.2396 13.06 11.0489 13.06 10.85V10.84C13.06 10.6411 12.981 10.4503 12.8403 10.3096C12.6997 10.169 12.5089 10.09 12.31 10.09H12.3ZM11.55 12.84C11.55 12.6411 11.629 12.4503 11.7697 12.3096C11.9103 12.169 12.1011 12.09 12.3 12.09H12.31C12.5089 12.09 12.6997 12.169 12.8403 12.3096C12.981 12.4503 13.06 12.6411 13.06 12.84V12.85C13.06 13.0489 12.981 13.2396 12.8403 13.3803C12.6997 13.5209 12.5089 13.6 12.31 13.6H12.3C12.1011 13.6 11.9103 13.5209 11.7697 13.3803C11.629 13.2396 11.55 13.0489 11.55 12.85V12.84ZM12.3 14.09C12.1011 14.09 11.9103 14.169 11.7697 14.3096C11.629 14.4503 11.55 14.6411 11.55 14.84V14.85C11.55 15.264 11.886 15.6 12.3 15.6H12.31C12.5089 15.6 12.6997 15.5209 12.8403 15.3803C12.981 15.2396 13.06 15.0489 13.06 14.85V14.84C13.06 14.6411 12.981 14.4503 12.8403 14.3096C12.6997 14.169 12.5089 14.09 12.31 14.09H12.3ZM13.55 10.84C13.55 10.6411 13.629 10.4503 13.7697 10.3096C13.9103 10.169 14.1011 10.09 14.3 10.09H14.31C14.5089 10.09 14.6997 10.169 14.8403 10.3096C14.981 10.4503 15.06 10.6411 15.06 10.84V10.85C15.06 11.0489 14.981 11.2396 14.8403 11.3803C14.6997 11.5209 14.5089 11.6 14.31 11.6H14.3C14.1011 11.6 13.9103 11.5209 13.7697 11.3803C13.629 11.2396 13.55 11.0489 13.55 10.85V10.84ZM14.3 12.09C14.1011 12.09 13.9103 12.169 13.7697 12.3096C13.629 12.4503 13.55 12.6411 13.55 12.84V12.85C13.55 13.264 13.886 13.6 14.3 13.6H14.31C14.5089 13.6 14.6997 13.5209 14.8403 13.3803C14.981 13.2396 15.06 13.0489 15.06 12.85V12.84C15.06 12.6411 14.981 12.4503 14.8403 12.3096C14.6997 12.169 14.5089 12.09 14.31 12.09H14.3Z" fill="#495057"/>
<path fill-rule="evenodd" clip-rule="evenodd" d="M6.05 2.83997C6.24892 2.83997 6.43968 2.91898 6.58033 3.05964C6.72099 3.20029 6.8 3.39105 6.8 3.58997V4.83997H13.8V3.58997C13.8 3.39105 13.879 3.20029 14.0197 3.05964C14.1603 2.91898 14.3511 2.83997 14.55 2.83997C14.7489 2.83997 14.9397 2.91898 15.0803 3.05964C15.221 3.20029 15.3 3.39105 15.3 3.58997V4.83997H15.55C16.2793 4.83997 16.9788 5.1297 17.4945 5.64542C18.0103 6.16115 18.3 6.86062 18.3 7.58997V16.09C18.3 16.8193 18.0103 17.5188 17.4945 18.0345C16.9788 18.5502 16.2793 18.84 15.55 18.84H5.05C4.32066 18.84 3.62118 18.5502 3.10546 18.0345C2.58973 17.5188 2.3 16.8193 2.3 16.09V7.58997C2.3 6.86062 2.58973 6.16115 3.10546 5.64542C3.62118 5.1297 4.32066 4.83997 5.05 4.83997H5.3V3.58997C5.3 3.39105 5.37902 3.20029 5.51967 3.05964C5.66033 2.91898 5.85109 2.83997 6.05 2.83997ZM5.05 8.33997C4.36 8.33997 3.8 8.89997 3.8 9.58997V16.09C3.8 16.78 4.36 17.34 5.05 17.34H15.55C16.24 17.34 16.8 16.78 16.8 16.09V9.58997C16.8 8.89997 16.24 8.33997 15.55 8.33997H5.05Z" fill="#495057"/>
</svg>
