<svg width="21" height="21" viewBox="0 0 21 21" fill="none" xmlns="http://www.w3.org/2000/svg">
<path fill-rule="evenodd" clip-rule="evenodd" d="M6.92 4.58997C6.92 3.86062 7.20973 3.16115 7.72545 2.64542C8.24118 2.1297 8.94065 1.83997 9.67 1.83997H12.17C12.8993 1.83997 13.5988 2.1297 14.1145 2.64542C14.6303 3.16115 14.92 3.86062 14.92 4.58997V5.03297C15.492 5.08797 16.06 5.15497 16.626 5.23297C17.973 5.42197 18.92 6.58997 18.92 7.90997V11.379C18.92 12.505 18.226 13.57 17.09 13.919C15.138 14.518 13.066 14.84 10.92 14.84C8.774 14.84 6.701 14.518 4.75 13.919C3.614 13.57 2.92 12.505 2.92 11.379V7.90997C2.92 6.58897 3.867 5.42097 5.214 5.23397C5.7812 5.15507 6.34999 5.08806 6.92 5.03297V4.58997ZM13.42 4.58997V4.91497C11.7548 4.81477 10.0852 4.81477 8.42 4.91497V4.58997C8.42 3.89997 8.98 3.33997 9.67 3.33997H12.17C12.86 3.33997 13.42 3.89997 13.42 4.58997ZM10.92 10.84C10.6548 10.84 10.4004 10.9453 10.2129 11.1329C10.0254 11.3204 9.92 11.5747 9.92 11.84V11.85C9.92 12.1152 10.0254 12.3695 10.2129 12.5571C10.4004 12.7446 10.6548 12.85 10.92 12.85H10.93C11.1952 12.85 11.4496 12.7446 11.6371 12.5571C11.8246 12.3695 11.93 12.1152 11.93 11.85V11.84C11.93 11.5747 11.8246 11.3204 11.6371 11.1329C11.4496 10.9453 11.1952 10.84 10.93 10.84H10.92Z" fill="#495057"/>
<path d="M3.92 15.8949V15.2109C4.046 15.2639 4.175 15.3109 4.31 15.3529C6.402 15.9949 8.623 16.3399 10.92 16.3399C13.217 16.3399 15.438 15.9949 17.53 15.3529C17.665 15.3119 17.794 15.2639 17.92 15.2109V15.8949C17.92 17.2419 16.935 18.4249 15.557 18.5809C12.4754 18.9278 9.3646 18.9278 6.283 18.5809C4.905 18.4249 3.92 17.2419 3.92 15.8949Z" fill="#495057"/>
</svg>
